<?xml version="1.0" encoding="UTF-8" standalone="no"?>
<svg
   width="200"
   height="80"
   viewBox="0 0 200 80"
   version="1.1"
   id="svg8"
   sodipodi:docname="logo.svg"
   inkscape:version="1.4.2 (f4327f4, 2025-05-13)"
   xmlns:inkscape="http://www.inkscape.org/namespaces/inkscape"
   xmlns:sodipodi="http://sodipodi.sourceforge.net/DTD/sodipodi-0.dtd"
   xmlns:xlink="http://www.w3.org/1999/xlink"
   xmlns="http://www.w3.org/2000/svg"
   xmlns:svg="http://www.w3.org/2000/svg">
  <sodipodi:namedview
     id="namedview8"
     pagecolor="#ffffff"
     bordercolor="#000000"
     borderopacity="0.25"
     inkscape:showpageshadow="2"
     inkscape:pageopacity="0.0"
     inkscape:pagecheckerboard="0"
     inkscape:deskcolor="#d1d1d1"
     inkscape:zoom="7.9999999"
     inkscape:cx="31.25"
     inkscape:cy="45.437501"
     inkscape:window-width="1920"
     inkscape:window-height="1001"
     inkscape:window-x="-9"
     inkscape:window-y="-9"
     inkscape:window-maximized="1"
     inkscape:current-layer="svg8" />
  <defs
     id="defs4">
    <linearGradient
       id="linearGradient22"
       inkscape:collect="always">
      <stop
         style="stop-color:#2d5281;stop-opacity:1;"
         offset="0"
         id="stop22" />
      <stop
         style="stop-color:#5688c5;stop-opacity:1;"
         offset="1"
         id="stop23" />
    </linearGradient>
    <linearGradient
       id="linearGradient18"
       inkscape:collect="always">
      <stop
         style="stop-color:#1a202c;stop-opacity:1;"
         offset="0"
         id="stop18" />
      <stop
         style="stop-color:#5688c5;stop-opacity:1;"
         offset="1"
         id="stop19" />
    </linearGradient>
    <linearGradient
       id="linearGradient11"
       x1="0"
       y1="0"
       x2="1"
       y2="0">
      <stop
         offset="0"
         style="stop-color:#2c5381;stop-opacity:1;"
         id="stop7" />
      <stop
         offset="100%"
         style="stop-color:#06b6d4;stop-opacity:1"
         id="stop9" />
    </linearGradient>
    <linearGradient
       id="linearGradient6"
       x1="0"
       y1="0"
       x2="1"
       y2="0">
      <stop
         offset="0"
         style="stop-color:#2c5381;stop-opacity:1;"
         id="stop5" />
      <stop
         offset="100%"
         style="stop-color:#06b6d4;stop-opacity:1"
         id="stop6" />
    </linearGradient>
    <linearGradient
       id="swatch8"
       inkscape:swatch="solid">
      <stop
         style="stop-color:#2c5381;stop-opacity:1;"
         offset="0"
         id="stop8" />
    </linearGradient>
    <linearGradient
       id="grad1"
       x1="0%"
       y1="0%"
       x2="100%"
       y2="100%">
      <stop
         offset="0%"
         style="stop-color:#2C5282;stop-opacity:1"
         id="stop1" />
      <stop
         offset="100%"
         style="stop-color:#4299E1;stop-opacity:1"
         id="stop2" />
    </linearGradient>
    <linearGradient
       id="grad2"
       x1="0%"
       y1="0%"
       x2="100%"
       y2="100%">
      <stop
         offset="0%"
         style="stop-color:#4299E1;stop-opacity:0.8"
         id="stop3" />
      <stop
         offset="100%"
         style="stop-color:#63B3ED;stop-opacity:0.8"
         id="stop4" />
    </linearGradient>
    <linearGradient
       id="mathGrad"
       x1="0"
       y1="0"
       x2="1"
       y2="0">
      <stop
         offset="0%"
         style="stop-color:#1e3a8a;stop-opacity:1"
         id="stop1-0" />
      <stop
         offset="100%"
         style="stop-color:#06b6d4;stop-opacity:1"
         id="stop2-9" />
    </linearGradient>
    <linearGradient
       id="mainGrad"
       x1="36.742348"
       y1="24.494898"
       x2="85.73214"
       y2="73.484695"
       gradientTransform="matrix(0.86329073,0,0,1.0978509,-7.0092856,-12.27487)"
       gradientUnits="userSpaceOnUse">
      <stop
         offset="0"
         style="stop-color:#2d5281;stop-opacity:1;"
         id="stop1-09" />
      <stop
         offset="1"
         style="stop-color:#5688c5;stop-opacity:1;"
         id="stop2-4" />
    </linearGradient>
    <linearGradient
       inkscape:collect="always"
       xlink:href="#linearGradient18"
       id="linearGradient21"
       gradientUnits="userSpaceOnUse"
       gradientTransform="translate(-6.2421851,-7.058604)"
       x1="51.131046"
       y1="19.624416"
       x2="68.700989"
       y2="37.194359" />
    <linearGradient
       inkscape:collect="always"
       xlink:href="#linearGradient22"
       id="linearGradient23"
       x1="52.131035"
       y1="20.124422"
       x2="69.700966"
       y2="37.694351"
       gradientUnits="userSpaceOnUse" />
  </defs>
  <!-- 背景层次效果 -->
  <!-- 文字 -->
  <path
     d="M 87.146484,45 V 25.121094 h 4.046875 V 41.623047 H 101.25586 V 45 Z M 106.98438,34.910156 103.49805,34.28125 q 0.58789,-2.105469 2.02343,-3.117188 1.43555,-1.011718 4.26563,-1.011718 2.57031,0 3.82812,0.615234 1.25782,0.601563 1.76368,1.544922 0.51953,0.929687 0.51953,3.431641 l -0.041,4.484375 q 0,1.914062 0.17774,2.830078 0.1914,0.902343 0.69726,1.941406 h -3.80078 q -0.15039,-0.382813 -0.36914,-1.134766 -0.0957,-0.341797 -0.13672,-0.451172 -0.98437,0.957032 -2.10547,1.435547 -1.12109,0.478516 -2.39258,0.478516 -2.24218,0 -3.54101,-1.216797 -1.28516,-1.216797 -1.28516,-3.076172 0,-1.230469 0.58789,-2.1875 0.58789,-0.970703 1.64063,-1.476562 1.0664,-0.519532 3.0625,-0.902344 2.69336,-0.505859 3.73242,-0.943359 v -0.382813 q 0,-1.107422 -0.54687,-1.572266 -0.54688,-0.478515 -2.06446,-0.478515 -1.02539,0 -1.59961,0.410156 -0.57422,0.396484 -0.92968,1.408203 z m 5.14062,3.117188 q -0.73828,0.246093 -2.33789,0.58789 -1.59961,0.341797 -2.0918,0.669922 -0.75195,0.533203 -0.75195,1.353516 0,0.80664 0.60156,1.394531 0.60156,0.587891 1.53125,0.587891 1.03906,0 1.98242,-0.683594 0.69727,-0.519531 0.91602,-1.271484 0.15039,-0.492188 0.15039,-1.873047 z m 7.27344,-7.546875 h 3.54101 v 1.982422 q 1.90039,-2.310547 4.52539,-2.310547 1.39453,0 2.41993,0.574218 1.02539,0.574219 1.68164,1.736329 0.95703,-1.16211 2.06445,-1.736329 1.10742,-0.574218 2.36523,-0.574218 1.59961,0 2.70703,0.65625 1.10743,0.642578 1.6543,1.90039 0.39649,0.929688 0.39649,3.007813 V 45 h -3.8418 v -8.298828 q 0,-2.160156 -0.39649,-2.789063 -0.5332,-0.820312 -1.64062,-0.820312 -0.80664,0 -1.51758,0.492187 -0.71094,0.492188 -1.02539,1.449219 -0.31445,0.943359 -0.31445,2.994141 V 45 h -3.8418 v -7.957031 q 0,-2.119141 -0.20508,-2.734375 -0.20507,-0.615235 -0.64257,-0.916016 -0.42383,-0.300781 -1.16211,-0.300781 -0.88868,0 -1.59961,0.478515 -0.71094,0.478516 -1.02539,1.38086 -0.30079,0.902344 -0.30079,2.99414 V 45 h -3.84179 z m 25.18359,-1.96875 v -3.554688 h 3.8418 v 3.554688 z m 0,16.488281 V 30.480469 h 3.8418 V 45 Z m 20.98633,0 h -3.8418 v -7.410156 q 0,-2.351563 -0.24609,-3.035157 -0.2461,-0.697265 -0.80664,-1.080078 -0.54688,-0.382812 -1.32617,-0.382812 -0.99805,0 -1.79102,0.546875 -0.79297,0.546875 -1.09375,1.449219 -0.28711,0.902343 -0.28711,3.335937 V 45 h -3.8418 V 30.480469 h 3.56836 v 2.132812 q 1.90039,-2.460937 4.78516,-2.460937 1.27148,0 2.32422,0.464843 1.05273,0.451172 1.58594,1.16211 0.54687,0.710937 0.75195,1.613281 0.21875,0.902344 0.21875,2.583984 z m 6.76758,-10.089844 -3.48633,-0.628906 q 0.58789,-2.105469 2.02344,-3.117188 1.43554,-1.011718 4.26562,-1.011718 2.57031,0 3.82813,0.615234 1.25781,0.601563 1.76367,1.544922 0.51953,0.929687 0.51953,3.431641 l -0.041,4.484375 q 0,1.914062 0.17774,2.830078 0.1914,0.902343 0.69726,1.941406 h -3.80078 q -0.15039,-0.382813 -0.36914,-1.134766 -0.0957,-0.341797 -0.13672,-0.451172 -0.98437,0.957032 -2.10547,1.435547 -1.12109,0.478516 -2.39257,0.478516 -2.24219,0 -3.54102,-1.216797 -1.28516,-1.216797 -1.28516,-3.076172 0,-1.230469 0.5879,-2.1875 0.58789,-0.970703 1.64062,-1.476562 1.06641,-0.519532 3.0625,-0.902344 2.69336,-0.505859 3.73242,-0.943359 v -0.382813 q 0,-1.107422 -0.54687,-1.572266 -0.54688,-0.478515 -2.06446,-0.478515 -1.02539,0 -1.59961,0.410156 -0.57421,0.396484 -0.92968,1.408203 z m 5.14062,3.117188 q -0.73828,0.246093 -2.33789,0.58789 -1.59961,0.341797 -2.0918,0.669922 -0.75195,0.533203 -0.75195,1.353516 0,0.80664 0.60156,1.394531 0.60157,0.587891 1.53125,0.587891 1.03907,0 1.98243,-0.683594 0.69726,-0.519531 0.91601,-1.271484 0.15039,-0.492188 0.15039,-1.873047 z"
     id="text6"
     style="font-weight:bold;font-size:28px;font-family:Arial, sans-serif;fill:#2c5382;stroke:#2c5381"
     aria-label="Lamina" />
  <path
     d="m 85.335937,58.75 v -5.726563 h 0.757813 v 5.050782 h 2.820312 V 58.75 Z m 7.097657,-0.511719 q -0.390625,0.332031 -0.753907,0.46875 -0.359375,0.136719 -0.773437,0.136719 -0.683594,0 -1.050781,-0.332031 -0.367188,-0.335938 -0.367188,-0.855469 0,-0.304688 0.136719,-0.554688 0.140625,-0.253906 0.363281,-0.40625 0.226563,-0.152343 0.507813,-0.230468 0.207031,-0.05469 0.625,-0.105469 0.851562,-0.101563 1.253906,-0.242188 0.0039,-0.144531 0.0039,-0.183593 0,-0.429688 -0.199219,-0.605469 -0.269531,-0.238281 -0.800781,-0.238281 -0.496094,0 -0.734375,0.175781 -0.234375,0.171875 -0.347656,0.613281 l -0.6875,-0.09375 q 0.09375,-0.441406 0.308594,-0.710937 0.214843,-0.273438 0.621093,-0.417969 0.40625,-0.148438 0.941407,-0.148438 0.53125,0 0.863281,0.125 0.332031,0.125 0.488281,0.316407 0.15625,0.1875 0.21875,0.476562 0.03516,0.179688 0.03516,0.648438 v 0.9375 q 0,0.980468 0.04297,1.242187 0.04687,0.257813 0.179688,0.496094 H 92.574219 Q 92.464844,58.53125 92.433594,58.238281 Z M 92.375,56.667969 q -0.382813,0.15625 -1.148438,0.265625 -0.433593,0.0625 -0.613281,0.140625 -0.179687,0.07813 -0.277344,0.230468 -0.09766,0.148438 -0.09766,0.332032 0,0.28125 0.210938,0.46875 0.214843,0.1875 0.625,0.1875 0.40625,0 0.722656,-0.175782 Q 92.113281,57.9375 92.261719,57.628906 92.375,57.390625 92.375,56.925781 Z m 1.769531,3.679687 -0.07813,-0.660156 q 0.230469,0.0625 0.402344,0.0625 0.234375,0 0.375,-0.07813 0.140625,-0.07813 0.230469,-0.21875 0.06641,-0.105469 0.214843,-0.523438 0.01953,-0.05859 0.0625,-0.171875 l -1.574218,-4.15625 h 0.757812 l 0.863281,2.402344 q 0.167969,0.457031 0.300782,0.960938 0.121093,-0.484375 0.289062,-0.945313 L 96.875,54.601562 h 0.703125 L 96,58.820312 q -0.253906,0.683594 -0.394531,0.941407 -0.1875,0.347656 -0.429688,0.507812 -0.242187,0.164063 -0.578125,0.164063 -0.203125,0 -0.453125,-0.08594 z m 6.871099,-2.933594 0.72656,0.08984 q -0.17188,0.636719 -0.63672,0.988281 -0.46484,0.351563 -1.187501,0.351563 -0.910157,0 -1.445313,-0.558594 -0.53125,-0.5625 -0.53125,-1.574219 0,-1.046875 0.539063,-1.625 0.539062,-0.578125 1.398437,-0.578125 0.832034,0 1.359374,0.566407 0.52735,0.566406 0.52735,1.59375 0,0.0625 -0.004,0.1875 h -3.093751 q 0.03906,0.683593 0.386718,1.046875 0.347657,0.363281 0.867188,0.363281 0.386715,0 0.660155,-0.203125 0.27344,-0.203125 0.4336,-0.648438 z m -2.308599,-1.136718 h 2.316409 q -0.0469,-0.523438 -0.26563,-0.785157 -0.33593,-0.40625 -0.871091,-0.40625 -0.484375,0 -0.816407,0.324219 -0.328125,0.324219 -0.363281,0.867188 z M 102.61719,58.75 V 54.601562 H 103.25 v 0.628907 q 0.24219,-0.441407 0.44531,-0.582032 0.20703,-0.140625 0.45313,-0.140625 0.35547,0 0.72265,0.226563 l -0.24218,0.652344 q -0.25782,-0.152344 -0.51563,-0.152344 -0.23047,0 -0.41406,0.140625 -0.18359,0.136719 -0.26172,0.382812 -0.11719,0.375 -0.11719,0.820313 V 58.75 Z m 5.51172,-1.335938 0.72656,0.08984 q -0.17188,0.636719 -0.63672,0.988281 -0.46484,0.351563 -1.1875,0.351563 -0.91016,0 -1.44531,-0.558594 -0.53125,-0.5625 -0.53125,-1.574219 0,-1.046875 0.53906,-1.625 0.53906,-0.578125 1.39844,-0.578125 0.83203,0 1.35937,0.566407 0.52735,0.566406 0.52735,1.59375 0,0.0625 -0.004,0.1875 h -3.09375 q 0.0391,0.683593 0.38672,1.046875 0.34766,0.363281 0.86719,0.363281 0.38672,0 0.66015,-0.203125 0.27344,-0.203125 0.4336,-0.648438 z m -2.3086,-1.136718 h 2.31641 q -0.0469,-0.523438 -0.26563,-0.785157 -0.33593,-0.40625 -0.87109,-0.40625 -0.48437,0 -0.81641,0.324219 -0.32812,0.324219 -0.36328,0.867188 z M 112.42969,58.75 v -0.523438 q -0.39453,0.617188 -1.16016,0.617188 -0.49609,0 -0.91406,-0.273438 -0.41406,-0.273437 -0.64453,-0.761718 -0.22656,-0.492188 -0.22656,-1.128907 0,-0.621093 0.20703,-1.125 0.20703,-0.507812 0.62109,-0.777343 0.41406,-0.269532 0.92578,-0.269532 0.375,0 0.66797,0.160157 0.29297,0.15625 0.47656,0.410156 v -2.054688 h 0.69922 V 58.75 Z m -2.22266,-2.070313 q 0,0.796875 0.33594,1.191407 0.33594,0.394531 0.79297,0.394531 0.46094,0 0.78125,-0.375 0.32422,-0.378906 0.32422,-1.152344 0,-0.851562 -0.32813,-1.25 -0.32812,-0.398437 -0.80859,-0.398437 -0.46875,0 -0.78516,0.382812 -0.3125,0.382813 -0.3125,1.207031 z M 114.37109,58.75 v -0.800781 h 0.80079 V 58.75 q 0,0.441406 -0.15625,0.710937 -0.15625,0.273438 -0.4961,0.421875 l -0.19531,-0.300781 q 0.22266,-0.09766 0.32812,-0.289062 0.10547,-0.1875 0.11719,-0.542969 z m 4.39063,0 v -5.726563 h 3.86328 v 0.675782 h -3.10547 v 1.773437 h 2.6875 v 0.675781 h -2.6875 V 58.75 Z m 7.47656,0 v -0.609375 q -0.48437,0.703125 -1.3164,0.703125 -0.36719,0 -0.6875,-0.140625 -0.31641,-0.140625 -0.47266,-0.351563 -0.15234,-0.214843 -0.21484,-0.523437 -0.043,-0.207031 -0.043,-0.65625 v -2.570313 h 0.70312 v 2.300782 q 0,0.550781 0.043,0.742187 0.0664,0.277344 0.28125,0.4375 0.21484,0.15625 0.53125,0.15625 0.31641,0 0.59375,-0.160156 0.27734,-0.164063 0.39063,-0.441406 0.11718,-0.28125 0.11718,-0.8125 v -2.222657 h 0.70313 V 58.75 Z m 1.73047,0 v -4.148438 h 0.63281 v 0.589844 q 0.45703,-0.683594 1.32031,-0.683594 0.375,0 0.6875,0.136719 0.31641,0.132813 0.47266,0.351563 0.15625,0.21875 0.21875,0.519531 0.0391,0.195312 0.0391,0.683594 V 58.75 h -0.70312 v -2.523438 q 0,-0.429687 -0.082,-0.640625 -0.082,-0.214843 -0.29297,-0.339843 -0.20703,-0.128907 -0.48828,-0.128907 -0.44922,0 -0.77735,0.285157 -0.32422,0.285156 -0.32422,1.082031 V 58.75 Z m 7.15625,-1.519531 0.69141,0.08984 q -0.11329,0.714844 -0.58204,1.121094 -0.46484,0.402344 -1.14453,0.402344 -0.85156,0 -1.37109,-0.554688 -0.51563,-0.558593 -0.51563,-1.597656 0,-0.671875 0.22266,-1.175781 0.22266,-0.503906 0.67578,-0.753906 0.45703,-0.253907 0.99219,-0.253907 0.67578,0 1.10547,0.34375 0.42969,0.339844 0.55078,0.96875 l -0.68359,0.105469 q -0.0977,-0.417969 -0.34766,-0.628906 -0.24609,-0.210938 -0.59766,-0.210938 -0.53125,0 -0.86328,0.382813 -0.33203,0.378906 -0.33203,1.203125 0,0.835937 0.32031,1.214844 0.32032,0.378906 0.83594,0.378906 0.41406,0 0.69141,-0.253906 0.27734,-0.253907 0.35156,-0.78125 z m 1.29687,-3.398438 v -0.808594 h 0.70313 v 0.808594 z m 0,4.917969 V 54.601562 H 137.125 V 58.75 Z m 1.51172,-2.074219 q 0,-1.152344 0.64063,-1.707031 0.53515,-0.460938 1.30469,-0.460938 0.85546,0 1.39843,0.5625 0.54297,0.558594 0.54297,1.546875 0,0.800782 -0.24219,1.261719 -0.23828,0.457031 -0.69921,0.710938 -0.45704,0.253906 -1,0.253906 -0.8711,0 -1.41016,-0.558594 -0.53516,-0.558594 -0.53516,-1.609375 z m 0.72266,0 q 0,0.796875 0.34766,1.195313 0.34765,0.394531 0.875,0.394531 0.52343,0 0.87109,-0.398438 0.34766,-0.398437 0.34766,-1.214843 0,-0.769532 -0.35157,-1.164063 -0.34765,-0.398437 -0.86718,-0.398437 -0.52735,0 -0.875,0.394531 -0.34766,0.394531 -0.34766,1.191406 z M 142.64453,58.75 v -4.148438 h 0.63281 v 0.589844 q 0.45703,-0.683594 1.32032,-0.683594 0.375,0 0.6875,0.136719 0.3164,0.132813 0.47265,0.351563 0.15625,0.21875 0.21875,0.519531 0.0391,0.195312 0.0391,0.683594 V 58.75 h -0.70312 v -2.523438 q 0,-0.429687 -0.082,-0.640625 -0.082,-0.214843 -0.29297,-0.339843 -0.20703,-0.128907 -0.48828,-0.128907 -0.44922,0 -0.77735,0.285157 -0.32421,0.285156 -0.32421,1.082031 V 58.75 Z m 7.15625,-0.511719 q -0.39062,0.332031 -0.75391,0.46875 -0.35937,0.136719 -0.77343,0.136719 -0.6836,0 -1.05078,-0.332031 -0.36719,-0.335938 -0.36719,-0.855469 0,-0.304688 0.13672,-0.554688 0.14062,-0.253906 0.36328,-0.40625 0.22656,-0.152343 0.50781,-0.230468 0.20703,-0.05469 0.625,-0.105469 0.85156,-0.101563 1.25391,-0.242188 0.004,-0.144531 0.004,-0.183593 0,-0.429688 -0.19922,-0.605469 -0.26953,-0.238281 -0.80078,-0.238281 -0.49609,0 -0.73437,0.175781 -0.23438,0.171875 -0.34766,0.613281 l -0.6875,-0.09375 q 0.0937,-0.441406 0.3086,-0.710937 0.21484,-0.273438 0.62109,-0.417969 0.40625,-0.148438 0.94141,-0.148438 0.53125,0 0.86328,0.125 0.33203,0.125 0.48828,0.316407 0.15625,0.1875 0.21875,0.476562 0.0352,0.179688 0.0352,0.648438 v 0.9375 q 0,0.980468 0.043,1.242187 0.0469,0.257813 0.17969,0.496094 h -0.73437 q -0.10938,-0.21875 -0.14063,-0.511719 z m -0.0586,-1.570312 q -0.38282,0.15625 -1.14844,0.265625 -0.43359,0.0625 -0.61328,0.140625 -0.17969,0.07813 -0.27735,0.230468 -0.0977,0.148438 -0.0977,0.332032 0,0.28125 0.21094,0.46875 0.21484,0.1875 0.625,0.1875 0.40625,0 0.72265,-0.175782 0.31641,-0.179687 0.46485,-0.488281 0.11328,-0.238281 0.11328,-0.703125 z M 151.52734,58.75 v -5.726563 h 0.70313 V 58.75 Z m 1.97657,0 v -0.800781 h 0.80078 V 58.75 q 0,0.441406 -0.15625,0.710937 -0.15625,0.273438 -0.4961,0.421875 l -0.19531,-0.300781 q 0.22266,-0.09766 0.32813,-0.289062 0.10546,-0.1875 0.11718,-0.542969 z m 4.36718,0 v -5.726563 h 4.14063 v 0.675782 h -3.38281 v 1.753906 h 3.16796 V 56.125 h -3.16796 v 1.949219 h 3.51562 V 58.75 Z m 5.21485,0 v -5.726563 h 0.70312 V 58.75 Z m 4.63281,-1.335938 0.72656,0.08984 q -0.17187,0.636719 -0.63672,0.988281 -0.46484,0.351563 -1.1875,0.351563 -0.91015,0 -1.44531,-0.558594 -0.53125,-0.5625 -0.53125,-1.574219 0,-1.046875 0.53906,-1.625 0.53907,-0.578125 1.39844,-0.578125 0.83203,0 1.35938,0.566407 0.52734,0.566406 0.52734,1.59375 0,0.0625 -0.004,0.1875 h -3.09375 q 0.0391,0.683593 0.38672,1.046875 0.34766,0.363281 0.86719,0.363281 0.38672,0 0.66016,-0.203125 0.27343,-0.203125 0.43359,-0.648438 z m -2.30859,-1.136718 h 2.3164 q -0.0469,-0.523438 -0.26562,-0.785157 -0.33594,-0.40625 -0.8711,-0.40625 -0.48437,0 -0.8164,0.324219 -0.32813,0.324219 -0.36328,0.867188 z m 3.78906,2.816406 0.68359,0.101562 q 0.043,0.316407 0.23828,0.460938 0.26172,0.195312 0.71485,0.195312 0.48828,0 0.7539,-0.195312 0.26563,-0.195313 0.35938,-0.546875 0.0547,-0.214844 0.0508,-0.902344 -0.46094,0.542969 -1.14844,0.542969 -0.85547,0 -1.32422,-0.617188 -0.46875,-0.617187 -0.46875,-1.480468 0,-0.59375 0.21485,-1.09375 0.21484,-0.503907 0.62109,-0.777344 0.41016,-0.273438 0.96094,-0.273438 0.73437,0 1.21094,0.59375 v -0.5 h 0.64843 V 58.1875 q 0,0.96875 -0.19922,1.371094 -0.19531,0.40625 -0.625,0.640625 -0.42578,0.234375 -1.05078,0.234375 -0.74218,0 -1.19922,-0.335938 -0.45703,-0.332031 -0.4414,-1.003906 z m 0.58203,-2.492188 q 0,0.816407 0.32422,1.191407 0.32422,0.375 0.8125,0.375 0.48437,0 0.8125,-0.371094 0.32812,-0.375 0.32812,-1.171875 0,-0.761719 -0.33984,-1.148438 -0.33594,-0.386718 -0.8125,-0.386718 -0.46875,0 -0.79688,0.382812 -0.32812,0.378906 -0.32812,1.128906 z m 6.70312,1.636719 q -0.39062,0.332031 -0.7539,0.46875 -0.35938,0.136719 -0.77344,0.136719 -0.68359,0 -1.05078,-0.332031 -0.36719,-0.335938 -0.36719,-0.855469 0,-0.304688 0.13672,-0.554688 0.14063,-0.253906 0.36328,-0.40625 0.22656,-0.152343 0.50781,-0.230468 0.20704,-0.05469 0.625,-0.105469 0.85157,-0.101563 1.25391,-0.242188 0.004,-0.144531 0.004,-0.183593 0,-0.429688 -0.19922,-0.605469 -0.26953,-0.238281 -0.80078,-0.238281 -0.4961,0 -0.73438,0.175781 -0.23437,0.171875 -0.34765,0.613281 l -0.6875,-0.09375 q 0.0937,-0.441406 0.30859,-0.710937 0.21484,-0.273438 0.62109,-0.417969 0.40625,-0.148438 0.94141,-0.148438 0.53125,0 0.86328,0.125 0.33203,0.125 0.48828,0.316407 0.15625,0.1875 0.21875,0.476562 0.0352,0.179688 0.0352,0.648438 v 0.9375 q 0,0.980468 0.043,1.242187 0.0469,0.257813 0.17968,0.496094 H 176.625 q -0.10938,-0.21875 -0.14063,-0.511719 z m -0.0586,-1.570312 q -0.38281,0.15625 -1.14844,0.265625 -0.43359,0.0625 -0.61328,0.140625 -0.17969,0.07813 -0.27734,0.230468 -0.0977,0.148438 -0.0977,0.332032 0,0.28125 0.21094,0.46875 0.21484,0.1875 0.625,0.1875 0.40625,0 0.72266,-0.175782 0.3164,-0.179687 0.46484,-0.488281 0.11328,-0.238281 0.11328,-0.703125 z M 178.22656,58.75 v -4.148438 h 0.63281 v 0.589844 q 0.45704,-0.683594 1.32032,-0.683594 0.375,0 0.6875,0.136719 0.3164,0.132813 0.47265,0.351563 0.15625,0.21875 0.21875,0.519531 0.0391,0.195312 0.0391,0.683594 V 58.75 h -0.70313 v -2.523438 q 0,-0.429687 -0.082,-0.640625 -0.082,-0.214843 -0.29297,-0.339843 -0.20703,-0.128907 -0.48828,-0.128907 -0.44922,0 -0.77734,0.285157 -0.32422,0.285156 -0.32422,1.082031 V 58.75 Z m 5.98438,-0.628906 0.10156,0.621093 q -0.29688,0.0625 -0.53125,0.0625 -0.38281,0 -0.59375,-0.121093 -0.21094,-0.121094 -0.29688,-0.316407 -0.0859,-0.199218 -0.0859,-0.832031 v -2.386719 h -0.51563 v -0.546875 h 0.51563 v -1.027343 l 0.69922,-0.421875 v 1.449218 h 0.70703 v 0.546875 h -0.70703 v 2.425782 q 0,0.300781 0.0352,0.386718 0.0391,0.08594 0.1211,0.136719 0.0859,0.05078 0.24218,0.05078 0.11719,0 0.3086,-0.02734 z"
     id="text7"
     style="font-size:8px;font-family:Arial, sans-serif;fill:#4a5568"
     aria-label="Layered, Funcional, Elegant" />
  <!-- 装饰元素 -->
  <path
     id="circle7"
     style="opacity:0.8;fill:#ed8936"
     d="m 183,25 a 8,8 0 0 1 -8,8 8,8 0 0 1 -8,-8 8,8 0 0 1 8,-8 8,8 0 0 1 8,8 z" />
  <path
     id="circle8"
     style="opacity:0.6;fill:#ed8936"
     d="m 190,35 a 5,5 0 0 1 -5,5 5,5 0 0 1 -5,-5 5,5 0 0 1 5,-5 5,5 0 0 1 5,5 z" />
  <path
     d="M 14.136932,5.65296 V 59.436447 H 45.856258 V 45.990575 H 29.996594 V 5.65296 Z"
     fill="#1a202c"
     opacity="0.3"
     id="path2"
     style="stroke-width:0.97353" />
  <path
     d="m 19.423486,10.134916 v 53.78349 H 51.142812 V 50.472533 H 35.283148 V 10.134916 Z"
     fill="#2d3748"
     opacity="0.6"
     id="path3"
     style="stroke-width:0.97353" />
  <path
     d="M 24.71004,14.616874 V 68.400362 H 67.002475 V 54.954489 H 40.569704 V 14.616874 Z"
     fill="url(#mainGrad)"
     id="path4"
     style="fill:url(#mainGrad);stroke-width:0.97353" />
  <path
     d="m 66.097647,33.201565 h -6.08059 V 17.331544 l -4.393306,10.2988 h -4.21821 l -4.393306,-10.2988 V 33.201565 H 41.250001 V 9.4999989 h 7.099328 L 53.681783,21.390576 58.99832,9.4999989 h 7.099327 z"
     id="text12-3"
     style="font-weight:bold;font-size:32.5996px;font-family:Sans;-inkscape-font-specification:'Sans, Bold';opacity:0.3;fill:#4a5568;stroke-width:4.07495;stroke-opacity:0"
     aria-label="M" />
  <path
     d="m 69.597647,37.201565 h -6.08059 V 21.331544 l -4.393306,10.2988 h -4.21821 l -4.393306,-10.2988 V 37.201565 H 44.750001 V 13.499999 h 7.099328 l 5.332454,11.890577 5.316537,-11.890577 h 7.099327 z"
     id="text12-9"
     style="font-weight:bold;font-size:32.5996px;font-family:Sans;-inkscape-font-specification:'Sans, Bold';opacity:0.6;fill:#4a5568;stroke-width:4.07495;stroke-opacity:0"
     aria-label="M" />
  <path
     d="m 73.339831,40.76017 h -6.08059 V 24.890149 l -4.393306,10.2988 h -4.21821 l -4.393306,-10.2988 V 40.76017 H 48.492185 V 17.058604 h 7.099327 l 5.332455,11.890577 5.316536,-11.890577 h 7.099328 z"
     id="text12"
     style="font-weight:bold;font-size:32.5996px;font-family:Sans;-inkscape-font-specification:'Sans, Bold';fill:url(#linearGradient23);stroke-width:4.07495;stroke-opacity:0"
     aria-label="M" />
</svg>
